HIERARCHY
ROOT Hips
{
	OFFSET 0.000000 88.474243 0.000000
	CHANNELS 6 Xposition Yposition Zposition Zrotation Yrotation Xrotation 
	JOINT Hips_Spine
	{
		OFFSET 0.000000 0.000000 0.000000
		CHANNELS 3 Zrotation Yrotation Xrotation
		JOINT Spine
		{
			OFFSET 0.005100 8.711998 -0.691000
			CHANNELS 3 Zrotation Yrotation Xrotation
			JOINT Spine1
			{
				OFFSET -0.009200 8.660301 -1.275000
				CHANNELS 3 Zrotation Yrotation Xrotation
				JOINT Spine2
				{
					OFFSET 0.006300 9.852501 -1.857000
					CHANNELS 3 Zrotation Yrotation Xrotation
					JOINT Spine2_Neck
					{
						OFFSET 0.000000 0.000000 0.000000
						CHANNELS 3 Zrotation Yrotation Xrotation
						JOINT Neck
						{
							OFFSET 0.016300 11.420799 -0.263300
							CHANNELS 3 Zrotation Yrotation Xrotation
							End Site #name: Head
							{
								OFFSET -0.019200 9.262405 2.362500
							}
						}
					}
					JOINT Spine2_LeftShoulder
					{
						OFFSET 0.000000 0.000000 0.000000
						CHANNELS 3 Zrotation Yrotation Xrotation
						JOINT LeftShoulder
						{
							OFFSET 5.616900 6.732201 -0.345700
							CHANNELS 3 Zrotation Yrotation Xrotation
							JOINT LeftArm
							{
								OFFSET 10.664888 -0.183372 -2.440700
								CHANNELS 3 Zrotation Yrotation Xrotation
								JOINT LeftForeArm
								{
									OFFSET 27.459126 0.000000 0.000000
									CHANNELS 3 Zrotation Yrotation Xrotation
									End Site #name: LeftHand
									{
										OFFSET 21.306858 0.000000 0.000000
									}
								}
							}
						}
					}
					JOINT Spine2_RightShoulder
					{
						OFFSET 0.000000 0.000000 0.000000
						CHANNELS 3 Zrotation Yrotation Xrotation
						JOINT RightShoulder
						{
							OFFSET -5.580300 6.737503 -0.344400
							CHANNELS 3 Zrotation Yrotation Xrotation
							JOINT RightArm
							{
								OFFSET -10.679335 -0.188484 -2.383900
								CHANNELS 3 Zrotation Yrotation Xrotation
								JOINT RightForeArm
								{
									OFFSET -27.503529 0.000000 0.000000
									CHANNELS 3 Zrotation Yrotation Xrotation
									End Site #name: RightHand
									{
										OFFSET -21.306808 0.000000 0.000000
									}
								}
							}
						}
					}
				}
			}
		}
	}
	JOINT Hips_LeftUpLeg
	{
		OFFSET 0.000000 0.000000 0.000000
		CHANNELS 3 Zrotation Yrotation Xrotation
		JOINT LeftUpLeg
		{
			OFFSET 6.857700 -6.739601 0.312100
			CHANNELS 3 Zrotation Yrotation Xrotation
			JOINT LeftLeg
			{
				OFFSET -0.367590 -34.731552 -4.572400
				CHANNELS 3 Zrotation Yrotation Xrotation
				End Site #name: LeftFoot
				{
					OFFSET 0.367590 -34.656704 -6.067400
				}
			}
		}
	}
	JOINT Hips_RightUpLeg
	{
		OFFSET 0.000000 0.000000 0.000000
		CHANNELS 3 Zrotation Yrotation Xrotation
		JOINT RightUpLeg
		{
			OFFSET -6.876100 -6.733299 0.301000
			CHANNELS 3 Zrotation Yrotation Xrotation
			JOINT RightLeg
			{
				OFFSET 0.347353 -34.795158 -4.515900
				CHANNELS 3 Zrotation Yrotation Xrotation
				End Site #name: RightFoot
				{
					OFFSET -0.347353 -34.589367 -6.070300
				}
			}
		}
	}
}
MOTION
Frames: 13
Frame Time: 0.041667
3.104634 0.576704 -5.180437 174.503724 -12.123230 -178.631329 0.000000 -0.000000 0.000000 -5.383303 -0.089006 4.051077 0.196960 -1.938402 0.029751 0.000000 0.000000 0.000000 0.870892 -1.747471 0.757214 1.415647 -31.158316 -1.801726 -0.125071 -1.573488 -1.004688 1.679107 -7.024338 0.811432 -85.946324 -23.474770 13.343057 4.029724 -15.083710 1.045769 0.117603 -2.479560 -0.309236 16.861618 13.575767 4.243025 55.117315 9.453568 8.924386 -0.433040 46.978033 4.072424 0.000000 0.000000 -0.000000 -3.548795 14.595210 -4.741567 0.327412 -36.438316 -16.128740 0.000000 0.000000 -0.000000 -4.737969 -52.627525 -11.060340 -11.199140 -6.132299 22.714092 
3.171159 0.629726 -5.318804 174.493362 -11.567180 -178.630737 0.000000 -0.000000 0.000000 -5.651996 0.057234 4.209437 0.186026 -1.809460 0.016795 0.000000 0.000000 0.000000 0.843173 -1.697582 0.721865 1.229316 -30.120842 -2.154250 -0.125678 -1.508445 -0.986620 1.703774 -7.419921 0.907557 -85.733779 -23.546534 13.652843 3.840973 -16.305253 0.746815 0.122325 -2.402540 -0.341997 16.512938 13.496334 4.290846 55.108385 9.312279 9.152281 -0.703226 46.330042 3.762919 0.000000 0.000000 -0.000000 -3.581956 14.397228 -5.231677 0.156480 -36.115194 -15.516419 0.000000 0.000000 -0.000000 -4.451350 -51.587301 -11.113575 -10.715737 -5.228745 22.369687 
3.241755 0.686178 -5.451470 174.430355 -11.072393 -178.618115 0.000000 -0.000000 0.000000 -5.916069 0.258550 4.375751 0.176235 -1.702603 -0.035664 0.000000 0.000000 0.000000 0.814655 -1.636254 0.681340 1.072636 -28.983929 -2.691108 -0.126833 -1.430885 -0.972169 1.724914 -7.798334 1.013815 -85.538769 -23.576316 13.837608 3.687037 -17.783047 0.442704 0.123015 -2.311659 -0.380634 16.177070 13.424662 4.347071 55.098449 9.174002 9.351304 -0.900782 45.616362 3.499241 0.000000 0.000000 -0.000000 -3.618631 14.160159 -5.732850 -0.032090 -35.822355 -14.879833 0.000000 0.000000 -0.000000 -4.218756 -50.648092 -11.094808 -10.253696 -4.253422 22.006405 
3.317868 0.743980 -5.578866 174.309656 -10.599669 -178.596587 -0.000000 -0.000000 0.000000 -6.183151 0.476133 4.554842 0.160422 -1.600983 -0.092152 0.000000 0.000000 0.000000 0.782823 -1.565505 0.633240 0.983453 -27.767124 -3.432819 -0.131571 -1.337070 -0.953999 1.734883 -8.121388 1.106760 -85.277761 -23.633875 13.940620 3.579007 -19.561087 0.150512 0.119689 -2.209634 -0.421506 15.870770 13.375788 4.390288 55.086901 9.061879 9.506742 -1.052881 44.980503 3.244409 0.000000 0.000000 -0.000000 -3.663422 13.874136 -6.239104 -0.238665 -35.577008 -14.228829 0.000000 0.000000 -0.000000 -4.053175 -49.999026 -10.999485 -9.777910 -3.143334 21.637739 
3.399088 0.800347 -5.703008 174.128424 -10.185497 -178.552947 -0.000000 -0.000000 0.000000 -6.462145 0.711089 4.756646 0.138284 -1.495019 -0.143617 0.000000 0.000000 0.000000 0.754995 -1.491476 0.576234 0.946313 -26.475191 -4.376644 -0.136843 -1.238836 -0.924569 1.735953 -8.332266 1.182227 -84.981653 -23.661229 14.035705 3.558246 -21.604256 -0.125903 0.117260 -2.098637 -0.467737 15.593475 13.353975 4.408924 55.084900 8.981245 9.622308 -1.190116 44.437805 3.015451 0.000000 0.000000 -0.000000 -3.715962 13.537419 -6.754857 -0.462194 -35.377935 -13.574604 0.000000 -0.000000 -0.000000 -3.964579 -49.783407 -10.834753 -9.275595 -1.945887 21.308521 
3.485956 0.852670 -5.824846 173.902578 -9.904833 -178.482821 -0.000000 -0.000000 0.000000 -6.767358 0.923479 4.978656 0.102522 -1.380320 -0.184232 0.000000 0.000000 0.000000 0.728939 -1.420956 0.523747 0.885375 -25.039547 -5.436153 -0.145893 -1.136311 -0.899256 1.766380 -8.403988 1.188081 -84.671802 -23.710216 14.034689 3.593576 -23.751350 -0.388306 0.116845 -1.992907 -0.521179 15.354326 13.380703 4.399607 55.084816 8.954781 9.678654 -1.320132 44.109228 2.821480 0.000000 0.000000 -0.000000 -3.795528 13.133753 -7.308120 -0.722605 -35.207694 -12.875504 0.000000 -0.000000 -0.000000 -4.007797 -50.011595 -10.573682 -8.575896 -0.812895 20.932400 
3.579576 0.899320 -5.944868 173.658259 -9.824820 -178.383927 -0.000000 -0.000000 0.000000 -7.091139 1.060243 5.228362 0.049442 -1.277099 -0.186562 0.000000 0.000000 0.000000 0.696654 -1.358298 0.504131 0.458709 -23.370726 -6.404297 -0.162417 -1.037454 -0.861820 1.803926 -8.490910 1.199000 -84.350293 -23.800216 14.052028 3.727872 -25.886778 -0.552528 0.115411 -1.891264 -0.554195 15.110443 13.527928 4.407563 55.082373 8.988494 9.660762 -1.444399 44.078745 2.696321 0.000000 0.000000 -0.000000 -3.877994 12.706460 -7.898946 -1.032184 -35.091099 -12.084154 0.000000 -0.000000 -0.000000 -4.130090 -50.548085 -10.312231 -7.762210 0.204902 20.634901 
3.681542 0.940748 -6.063659 173.424686 -9.898550 -178.268669 -0.000000 -0.000000 0.000000 -7.408594 1.141175 5.483417 -0.010329 -1.226020 -0.126756 0.000000 0.000000 0.000000 0.669519 -1.318384 0.520941 0.307566 -21.623201 -7.462413 -0.188303 -0.949285 -0.808382 1.848981 -8.601564 1.217630 -84.057535 -23.905577 14.047699 3.888908 -27.961705 -0.682125 0.108527 -1.804588 -0.556166 14.841532 13.809529 4.423688 55.062540 9.094149 9.504264 -1.556056 44.382852 2.572348 0.000000 0.000000 -0.000000 -3.955710 12.292341 -8.487219 -1.393934 -35.045762 -11.173505 0.000000 -0.000000 -0.000000 -4.346923 -51.489185 -9.949587 -6.800362 1.254282 20.337270 
3.792347 0.977951 -6.179139 173.213088 -10.103547 -178.153852 -0.000000 -0.000000 0.000000 -7.736622 1.146906 5.709910 -0.073508 -1.200236 -0.046630 0.000000 0.000000 0.000000 0.646432 -1.303550 0.536865 0.216405 -19.625461 -8.746455 -0.221349 -0.899978 -0.757770 1.894452 -8.734686 1.235670 -83.746640 -24.042661 14.039455 4.066372 -29.902897 -0.829489 0.096854 -1.739114 -0.545104 14.562667 14.248039 4.479380 55.034392 9.262280 9.232898 -1.665145 44.952775 2.439709 0.000000 0.000000 -0.000000 -4.038914 11.924401 -9.052213 -1.786065 -35.073326 -10.198377 0.000000 -0.000000 -0.000000 -4.601834 -52.772254 -9.521965 -5.762151 2.413635 20.108060 
3.911031 1.013862 -6.292758 173.002074 -10.300881 -178.049867 -0.000000 -0.000000 0.000000 -8.116121 1.064783 5.959361 -0.162608 -1.186079 0.028768 0.000000 0.000000 0.000000 0.598959 -1.299561 0.520049 0.147139 -17.487392 -10.099661 -0.265102 -0.890106 -0.720035 1.940338 -8.879067 1.267791 -83.422250 -24.178198 14.016612 4.293759 -32.510801 -1.011989 0.063290 -1.685843 -0.562748 14.283098 14.813231 4.527395 54.991831 9.503231 8.858517 -1.782712 45.764611 2.281997 0.000000 0.000000 -0.000000 -4.165892 11.583718 -9.646339 -2.237651 -35.193224 -9.053299 0.000000 -0.000000 -0.000000 -4.891006 -54.325979 -9.070696 -4.570514 3.735626 19.931422 
4.035664 1.048423 -6.406589 172.801343 -10.637179 -177.926645 -0.000000 -0.000000 0.000000 -8.537388 0.868254 6.228168 -0.272097 -1.180839 0.078655 0.000000 0.000000 0.000000 0.507176 -1.304397 0.474637 0.086978 -15.373322 -11.376768 -0.325299 -0.887273 -0.695236 1.981080 -9.029246 1.285042 -83.091878 -24.320291 13.930819 4.573283 -35.591270 -1.230461 0.002562 -1.644555 -0.600522 13.999091 15.458577 4.542672 54.952302 9.799535 8.429388 -1.901351 46.843524 2.104136 0.000000 0.000000 -0.000000 -4.305455 11.318300 -10.169762 -2.725441 -35.377106 -7.899924 0.000000 -0.000000 -0.000000 -5.142057 -55.862384 -8.690810 -4.149890 4.635118 19.856127 
4.167161 1.083410 -6.521399 172.602183 -10.903805 -177.789118 -0.000000 -0.000000 0.000000 -9.001424 0.601145 6.502222 -0.393277 -1.191965 0.114147 0.000000 0.000000 0.000000 0.408530 -1.321733 0.422417 -0.015436 -13.436994 -12.502785 -0.397404 -0.892536 -0.689007 2.004063 -9.145104 1.288060 -82.742201 -24.476032 13.873615 4.857690 -38.320333 -1.437869 -0.079915 -1.618556 -0.659175 13.716336 16.140152 4.526726 54.928619 10.096460 8.035613 -2.033251 48.050539 1.903398 0.000000 0.000000 -0.000000 -4.460235 11.185119 -10.615713 -3.285754 -35.526153 -6.737669 0.000000 -0.000000 -0.000000 -5.393753 -57.245937 -8.331341 -4.411395 5.016029 19.774044 
4.308781 1.121923 -6.636168 172.383347 -10.835038 -177.668944 -0.000000 -0.000000 0.000000 -9.467571 0.407386 6.784173 -0.532387 -1.218746 0.144995 0.000000 0.000000 0.000000 0.294569 -1.335213 0.366230 -0.101570 -11.634057 -13.449743 -0.479496 -0.903584 -0.701728 2.014052 -9.219990 1.273664 -82.364786 -24.631205 13.792327 5.177547 -40.817350 -1.637047 -0.178385 -1.611068 -0.739739 13.473267 16.854128 4.463337 54.948725 10.353861 7.794680 -2.160265 49.451035 1.720426 0.000000 0.000000 -0.000000 -4.612362 11.156351 -10.999852 -3.912800 -35.614624 -5.542385 0.000000 -0.000000 -0.000000 -5.401980 -58.272917 -8.160129 -4.693509 5.272674 19.740281 
